{"title":"The NincomPoops 2013 WebRip Xvid 1CD ESubs IcTv Hindi","uid":8978330,"size":719422210,"categoryP":"video","categoryS":"movies","magnet":"?xt=urn:btih:10aebf8ee197c718c094d78691cc4b5f087ad1c5&amp;dn=The+NincomPoops+2013+WebRip+Xvid+1CD+ESubs+IcTv+Hindi&amp;tr=udp%3A%2F%2Ftracker.openbittorrent.com%3A80&amp;tr=udp%3A%2F%2Fopen.demonii.com%3A1337&amp;tr=udp%3A%2F%2Ftracker.coppersurfer.tk%3A6969&amp;tr=udp%3A%2F%2Fexodus.desync.com%3A6969","seeders":1,"leechers":1,"uploader":"SJonam","files":1,"time":1380494953,"description":" &lt;a href=&quot;http://picturestack.com/194/211/pLB1Z5w.jpg&quot; rel=&quot;nofollow&quot; target=&quot;_NEW&quot;&gt;http://picturestack.com/194/211/pLB1Z5w.jpg&lt;/a&gt; &lt;a href=&quot;\nhttp://t1.someimage.com/BJ746D7.jpg&quot; rel=&quot;nofollow&quot; target=&quot;_NEW&quot;&gt;\nhttp://t1.someimage.com/BJ746D7.jpg&lt;/a&gt; &lt;a href=&quot;\nhttp://t1.someimage.com/1oitx4S.jpg&quot; rel=&quot;nofollow&quot; target=&quot;_NEW&quot;&gt;\nhttp://t1.someimage.com/1oitx4S.jpg&lt;/a&gt; &lt;a href=&quot;\nhttp://t1.someimage.com/vvyjnGM.jpg&quot; rel=&quot;nofollow&quot; target=&quot;_NEW&quot;&gt;\nhttp://t1.someimage.com/vvyjnGM.jpg&lt;/a&gt; &lt;a href=&quot;\nhttp://t1.someimage.com/K6vmSUO.jpg&quot; rel=&quot;nofollow&quot; target=&quot;_NEW&quot;&gt;\nhttp://t1.someimage.com/K6vmSUO.jpg&lt;/a&gt; &lt;a href=&quot;\nhttp://t1.someimage.com/sSIplGL.jpg&quot; rel=&quot;nofollow&quot; target=&quot;_NEW&quot;&gt;\nhttp://t1.someimage.com/sSIplGL.jpg&lt;/a&gt; &lt;a href=&quot;\nhttp://t1.someimage.com/DjkvysO.jpg&quot; rel=&quot;nofollow&quot; target=&quot;_NEW&quot;&gt;\nhttp://t1.someimage.com/DjkvysO.jpg&lt;/a&gt; &lt;a href=&quot;\nhttp://t1.someimage.com/WnwhIVq.jpg&quot; rel=&quot;nofollow&quot; target=&quot;_NEW&quot;&gt;\nhttp://t1.someimage.com/WnwhIVq.jpg&lt;/a&gt;\n\nInfo - \nIndia's first hilarious hindi comedy made especially for youtube audience. It has been made on a shoe string budget . Even though we have no item song or stars , the audience viewership &amp; support for the film has been great.\n\n.The film is a senseless comedy leading to senseless situations. If you enjoy situational comedies or old comedies of Hrishikesh mukherji or more recently 3 idiots, you should enjoy this film.\n\nThe film can be classified as a situational comedy. It has been inspired by american television shows , mainly seinfeld &amp; friends but has an original storyline. The funny film was shot in Mumbai.\n\nAs the film is made for youtube audience , we are looking forward to your feedback &amp; comments on the film. Its not a typical bollywood movie but for you tube online viewers for year 2013. Its an Independently made Indian film for youtube\n\nThis recent hindi movie released in 2013 starts Abhishek Patel, Siddharth Tewatiya, Afshad Kelawala, Shinjini Rawal, Elena Kazan , Nayani Dixit\n\nMedia Info - \nVideo\nFormat : MPEG-4 Visual\nFormat profile : Advanced Simple@L5\nFormat settings, BVOP : 2\nFormat settings, QPel : No\nFormat settings, GMC : No warppoints\nFormat settings, Matrix : Default (H.263)\nCodec ID : XVID\nCodec ID/Hint : XviD\nDuration : 1h 47mn\nBit rate : 804 Kbps\nWidth : 640 pixels\nHeight : 304 pixels\nDisplay aspect ratio : 2.2:1\nFrame rate : 23.976 fps\nColor space : YUV\nChroma subsampling : 4:2:0\nBit depth : 8 bits\nScan type : Progressive\nCompression mode : Lossy\nBits/(Pixel*Frame) : 0.172\nStream size : 620 MiB (90%)\nWriting library : XviD 1.2.1 (UTC 2008-12-04)\n\nAudio\nFormat : MPEG Audio\nFormat version : Version 1\nFormat profile : Layer 3\nMode : Joint stereo\nMode extension : MS Stereo\nCodec ID : 55\nCodec ID/Hint : MP3\nDuration : 1h 47mn\nBit rate mode : Constant\nBit rate : 80.0 Kbps\nChannel(s) : 2 channels\nSampling rate : 32.0 KHz\nCompression mode : Lossy\nStream size : 61.7 MiB (9%)\nAlignment : Aligned on interleaves\nInterleave, duration : 167 ms (4.00 video frames)\nInterleave, preload duration : 216 ms\nTitle : nincom\nWriting library : LAME3.99r\nEncoding settings : -m j -V 4 -q 2 -lowpass 13.5 -b 80\n\nRipper : Gr8 Sami\n\nSeeding 24x7... Extreme Seeding...\n\n\nEnjoy!\n","torrent":{"xt":"urn:btih:10aebf8ee197c718c094d78691cc4b5f087ad1c5","amp;dn":"The+NincomPoops+2013+WebRip+Xvid+1CD+ESubs+IcTv+Hindi","amp;tr":["udp%3A%2F%2Ftracker.openbittorrent.com%3A80","udp%3A%2F%2Fopen.demonii.com%3A1337","udp%3A%2F%2Ftracker.coppersurfer.tk%3A6969","udp%3A%2F%2Fexodus.desync.com%3A6969"],"infoHash":"10aebf8ee197c718c094d78691cc4b5f087ad1c5","infoHashBuffer":{"type":"Buffer","data":[16,174,191,142,225,151,199,24,192,148,215,134,145,204,75,95,8,122,209,197]},"announce":[],"urlList":[]}}